<svg viewBox="0 0 24 24" fill="none" xmlns="http://www.w3.org/2000/svg">
<path fill-rule="evenodd" clip-rule="evenodd" d="M11.9577 2C5.99973 2 1.26473 7.127 2.09473 13.125C2.62373 16.947 5.52273 20.156 9.31973 21.168C10.7337 21.545 12.1937 21.625 13.6597 21.372C14.8837 21.16 16.1397 21.255 17.3387 21.555L18.7957 21.919C20.6847 22.392 22.4007 20.711 21.9177 18.859C21.9177 18.859 21.6477 17.823 21.6397 17.79C21.3377 16.63 21.2727 15.405 21.5847 14.248C21.9707 12.822 22.0357 11.269 21.6887 9.66C20.7707 5.415 16.8727 2 11.9577 2ZM11.9577 4C15.9097 4 19.0047 6.71 19.7337 10.083C20.0007 11.319 19.9737 12.544 19.6547 13.726C18.3047 18.718 22.2517 20.722 17.8237 19.614C16.3507 19.246 14.8157 19.142 13.3187 19.401C12.1637 19.601 10.9937 19.544 9.83473 19.236C6.80773 18.429 4.49273 15.863 4.07573 12.851C3.40473 7.997 7.26873 4 11.9577 4Z" fill="currentColor"/>
</svg>
