<svg width="15" height="9" viewBox="0 0 15 9" fill="none" xmlns="http://www.w3.org/2000/svg">
<path fill-rule="evenodd" clip-rule="evenodd" d="M1.18601 1.2328C0.937995 1.49045 0.937995 1.90757 1.18601 2.16457L6.44465 7.61352C6.94132 8.12883 7.74706 8.12883 8.24374 7.61352L13.5412 2.12503C13.7866 1.87001 13.7898 1.45816 13.5475 1.19985C13.3001 0.936265 12.8925 0.932971 12.6413 1.1926L7.79412 6.21586C7.54547 6.47352 7.14291 6.47352 6.89426 6.21586L2.08524 1.2328C1.83722 0.975144 1.43467 0.975144 1.18601 1.2328Z" fill="white"/>
<path d="M1.18601 1.2328V1.2328C0.937995 1.49045 0.937995 1.90757 1.18601 2.16457L6.44465 7.61352C6.94132 8.12883 7.74706 8.12883 8.24374 7.61352L13.5412 2.12503C13.7866 1.87001 13.7898 1.45816 13.5475 1.19985C13.3001 0.936265 12.8925 0.932971 12.6413 1.1926L7.79412 6.21586C7.54547 6.47352 7.14291 6.47352 6.89426 6.21586L2.08524 1.2328C1.83722 0.975144 1.43467 0.975144 1.18601 1.2328" stroke="white"/>
</svg>
