<svg viewBox="0 0 24 24" fill="none" xmlns="http://www.w3.org/2000/svg">
<path fill-rule="evenodd" clip-rule="evenodd" d="M10.875 8.62499H8.62501V6.37499H10.875V4.12499H13.125V6.37499H15.375V8.62499H13.125V10.875H10.875V8.62499ZM19.875 12V8.62501L21 12H19.875ZM21 21H3.00001V14.25H7.50001V18.75H16.5V14.25H21V21ZM4.12501 8.62501V12H3.00001L4.12501 8.62501ZM6.375 3.00001H17.625V12H14.25V16.5H9.75V12H6.375V3.00001ZM21 5.25H19.875V0.75H4.125V5.25H3L0.75 12V23.25H23.25V12L21 5.25Z" fill="currentColor"/>
</svg>
