<svg viewBox="0 0 20 20" fill="none" xmlns="http://www.w3.org/2000/svg">
<path fill-rule="evenodd" clip-rule="evenodd" d="M18 9H14.288C14.155 9 14.028 9.053 13.934 9.146L12.533 10.548C12.302 10.779 11.914 10.729 11.748 10.447C9.527 6.655 9.847 7.202 9.413 6.46C9.082 5.895 8.306 5.796 7.843 6.259L7.344 6.757L7.352 6.771L5.269 8.854C5.175 8.947 5.048 9 4.915 9H2V3C2 2.448 2.448 2 3 2H17C17.552 2 18 2.448 18 3V9ZM18 17C18 17.552 17.552 18 17 18H3C2.448 18 2 17.552 2 17V11H5.745C5.878 11 6.005 10.947 6.099 10.854L7.939 9.013C8.17 8.781 8.558 8.831 8.724 9.114C10.922 12.866 10.484 12.115 11.043 13.078C11.372 13.645 12.149 13.747 12.613 13.284L14.761 11.146C14.854 11.052 14.981 11 15.113 11H18V17ZM18 0H2C0.895 0 0 0.895 0 2V18C0 19.104 0.895 20 2 20H18C19.105 20 20 19.104 20 18V2C20 0.895 19.105 0 18 0Z" fill="currentColor"/>
</svg>
