<svg width="24" height="24" viewBox="0 0 24 24" fill="none" xmlns="http://www.w3.org/2000/svg">
<path fill-rule="evenodd" clip-rule="evenodd" d="M18.4077 13.7762C16.9845 15.6011 15.4965 17.0618 13.774 18.4038C15.2011 19.2279 18.5494 20.7216 19.6343 19.637C20.3748 18.8967 20.0345 16.5809 18.4077 13.7762ZM12.0015 17.2514C13.9835 15.8016 15.7979 13.9877 17.247 12.0062C15.8039 10.0316 13.9905 8.21569 12.0015 6.76096C10.0055 8.21968 8.19511 10.0376 6.75498 12.0062C8.20409 13.9887 10.0195 15.8016 12.0015 17.2514ZM10.228 18.4038C8.50149 17.0578 7.01347 15.5971 5.5943 13.7762C3.96755 16.5809 3.62723 18.8967 4.36775 19.637C5.4426 20.7106 8.76197 19.2519 10.228 18.4038ZM5.5943 10.2361C7.01646 8.41125 8.50449 6.95153 10.228 5.60855C8.80289 4.78441 5.45358 3.28977 4.36775 4.37533C3.62723 5.11566 3.96755 7.43146 5.5943 10.2361ZM13.774 5.60855C15.5005 6.95353 16.9875 8.41425 18.4077 10.2361C22.0185 4.00915 19.2879 2.42172 13.774 5.60855ZM19.6642 12.0062C25.0983 20.4971 20.4277 25.0648 12.0015 19.6739C3.59529 25.0518 -1.1143 20.525 4.33881 12.0062C-1.05841 3.57413 3.4925 -1.10535 12.0015 4.33841C20.4247 -1.05047 25.1033 3.50828 19.6642 12.0062ZM13.0654 10.9456C13.6492 11.5302 13.6492 12.4781 13.0654 13.0618C12.4805 13.6465 11.5324 13.6465 10.9476 13.0618C10.3628 12.4781 10.3628 11.5302 10.9476 10.9456C11.5324 10.3609 12.4805 10.3609 13.0654 10.9456Z" fill="white"/>
</svg>
