<svg width="202" height="70" viewBox="0 0 202 70" fill="none" xmlns="http://www.w3.org/2000/svg">
<path d="M131.057 41.75V28.988H128.555V34.118H122.993V28.988H120.509V41.75H122.993V36.458H128.555V41.75H131.057ZM135.487 36.314C135.541 35.504 136.225 34.568 137.467 34.568C138.835 34.568 139.411 35.432 139.447 36.314H135.487ZM139.681 38.618C139.393 39.41 138.781 39.968 137.665 39.968C136.477 39.968 135.487 39.122 135.433 37.952H141.769C141.769 37.916 141.805 37.556 141.805 37.214C141.805 34.37 140.167 32.624 137.431 32.624C135.163 32.624 133.075 34.46 133.075 37.286C133.075 40.274 135.217 42.02 137.647 42.02C139.825 42.02 141.229 40.742 141.679 39.212L139.681 38.618ZM143.15 39.338C143.15 40.724 144.302 42.002 146.192 42.002C147.506 42.002 148.352 41.39 148.802 40.688C148.802 41.03 148.838 41.516 148.892 41.75H151.088C151.034 41.444 150.98 40.814 150.98 40.346V35.99C150.98 34.208 149.936 32.624 147.128 32.624C144.752 32.624 143.474 34.154 143.33 35.54L145.454 35.99C145.526 35.216 146.102 34.55 147.146 34.55C148.154 34.55 148.64 35.072 148.64 35.702C148.64 36.008 148.478 36.26 147.974 36.332L145.796 36.656C144.32 36.872 143.15 37.754 143.15 39.338ZM146.696 40.22C145.922 40.22 145.544 39.716 145.544 39.194C145.544 38.51 146.03 38.168 146.642 38.078L148.64 37.772V38.168C148.64 39.734 147.704 40.22 146.696 40.22ZM155.788 41.75V28.718H153.394V41.75H155.788ZM161.303 30.248H159.143V31.49C159.143 32.282 158.711 32.894 157.775 32.894H157.325V35.018H158.927V39.14C158.927 40.85 160.007 41.876 161.735 41.876C162.437 41.876 162.869 41.75 163.085 41.66V39.68C162.959 39.716 162.635 39.752 162.347 39.752C161.663 39.752 161.303 39.5 161.303 38.726V35.018H163.085V32.894H161.303V30.248ZM167.073 36.548C167.127 35.576 167.721 34.82 168.729 34.82C169.881 34.82 170.367 35.594 170.367 36.584V41.75H172.761V36.17C172.761 34.226 171.717 32.66 169.467 32.66C168.621 32.66 167.649 32.948 167.073 33.632V28.718H164.679V41.75H167.073V36.548ZM178.092 45.242L183.654 32.894H181.098L178.92 38.078L176.562 32.894H173.88L177.642 40.634L175.554 45.242H178.092Z" fill="white"/>
<rect x="10" y="5" width="60" height="60" fill="white" fill-opacity="0.01"/>
<mask id="mask0_58_817" style="mask-type:luminance" maskUnits="userSpaceOnUse" x="11" y="12" width="58" height="46">
<path fill-rule="evenodd" clip-rule="evenodd" d="M61.3661 23.1956C55.7295 16.5678 48.6127 12.5 40.0002 12.5C31.3877 12.5 24.2709 16.5678 18.6343 23.1956C15.3431 27.0656 13.2222 30.9163 12.1445 33.6046L11.5854 34.9991L12.1439 36.3938C13.2203 39.0824 15.3396 42.9336 18.6301 46.804C24.2652 53.4321 31.3834 57.5 40.0002 57.5C48.617 57.5 55.7352 53.4321 61.3703 46.804C64.6608 42.9336 66.7801 39.0824 67.8566 36.3938L68.415 34.9991L67.8559 33.6046C66.7782 30.9163 64.6574 27.0656 61.3661 23.1956ZM55.6532 28.0544C57.222 29.8991 58.5574 31.8903 59.6529 33.8794C59.8793 34.2905 60.077 34.6664 60.2462 35.0008C60.0773 35.3351 59.8798 35.7109 59.6537 36.1217C58.5592 38.1106 57.2247 40.1016 55.6566 41.946C51.3286 47.0367 46.1434 50 40.0006 50C33.8578 50 28.6725 47.0367 24.3445 41.946C22.7764 40.1016 21.4419 38.1106 20.3475 36.1217C20.1214 35.7109 19.9239 35.3351 19.7549 35.0008C19.9241 34.6664 20.1219 34.2905 20.3483 33.8794C21.4438 31.8903 22.7792 29.8991 24.3479 28.0544C28.6776 22.9634 33.8623 20 40.0006 20C46.1389 20 51.3236 22.9634 55.6532 28.0544ZM40 46.25C33.7868 46.25 28.75 41.2132 28.75 35C28.75 28.7868 33.7868 23.75 40 23.75C46.2133 23.75 51.25 28.7868 51.25 35C51.25 41.2132 46.2133 46.25 40 46.25ZM43.75 35C43.75 37.0711 42.0711 38.75 40 38.75C37.929 38.75 36.25 37.0711 36.25 35C36.25 32.9289 37.929 31.25 40 31.25C42.0711 31.25 43.75 32.9289 43.75 35Z" fill="white"/>
</mask>
<g mask="url(#mask0_58_817)">
<g opacity="0.7">
<rect x="10" y="5" width="60" height="60" fill="#612DF6"/>
</g>
</g>
<rect x="38.2" y="5" width="60" height="60" fill="white" fill-opacity="0.01"/>
<mask id="mask1_58_817" style="mask-type:luminance" maskUnits="userSpaceOnUse" x="39" y="12" width="58" height="46">
<path fill-rule="evenodd" clip-rule="evenodd" d="M89.5661 23.1956C83.9295 16.5678 76.8126 12.5 68.2002 12.5C59.5877 12.5 52.4708 16.5678 46.8342 23.1956C43.543 27.0656 41.4222 30.9163 40.3445 33.6046L39.7854 34.9991L40.3438 36.3938C41.4202 39.0824 43.5396 42.9336 46.8301 46.804C52.4652 53.4321 59.5833 57.5 68.2002 57.5C76.817 57.5 83.9351 53.4321 89.5702 46.804C92.8608 42.9336 94.9801 39.0824 96.0565 36.3938L96.6149 34.9991L96.0559 33.6046C94.9781 30.9163 92.8573 27.0656 89.5661 23.1956ZM83.8532 28.0544C85.4219 29.8991 86.7573 31.8903 87.8528 33.8794C88.0792 34.2905 88.277 34.6664 88.4462 35.0008C88.2772 35.3351 88.0797 35.7109 87.8536 36.1217C86.7591 38.1106 85.4247 40.1016 83.8566 41.946C79.5286 47.0367 74.3433 50 68.2005 50C62.0577 50 56.8725 47.0367 52.5445 41.946C50.9764 40.1016 49.6419 38.1106 48.5474 36.1217C48.3213 35.7109 48.1238 35.3351 47.9549 35.0008C48.1241 34.6664 48.3218 34.2905 48.5482 33.8794C49.6437 31.8903 50.9791 29.8991 52.5479 28.0544C56.8775 22.9634 62.0622 20 68.2005 20C74.3388 20 79.5235 22.9634 83.8532 28.0544ZM68.2 46.25C61.9868 46.25 56.95 41.2132 56.95 35C56.95 28.7868 61.9868 23.75 68.2 23.75C74.4132 23.75 79.45 28.7868 79.45 35C79.45 41.2132 74.4132 46.25 68.2 46.25ZM71.95 35C71.95 37.0711 70.2711 38.75 68.2 38.75C66.1289 38.75 64.45 37.0711 64.45 35C64.45 32.9289 66.1289 31.25 68.2 31.25C70.2711 31.25 71.95 32.9289 71.95 35Z" fill="white"/>
</mask>
<g mask="url(#mask1_58_817)">
<g opacity="0.7">
<rect x="38.2" y="5" width="60" height="60" fill="#52D1B7"/>
</g>
</g>
</svg>
