<svg width="24" height="24" viewBox="0 0 24 24" fill="none" xmlns="http://www.w3.org/2000/svg">
<path fill-rule="evenodd" clip-rule="evenodd" d="M10.8889 2C5.98 2 2 5.98 2 10.8889C2 15.7978 5.98 19.7778 10.8889 19.7778C12.9427 19.7778 14.8339 19.0811 16.3391 17.9111L20.4289 22L22 20.4289L17.9108 16.3396C19.0809 14.8344 19.7778 12.9429 19.7778 10.8889C19.7778 5.98 15.7978 2 10.8889 2ZM4.22212 10.8889C4.22212 14.5656 7.21323 17.5556 10.8888 17.5556C14.5643 17.5556 17.5555 14.5656 17.5555 10.8889C17.5555 7.21335 14.5643 4.22223 10.8888 4.22223C7.21323 4.22223 4.22212 7.21335 4.22212 10.8889Z" fill="currentColor"/>
</svg>
