<svg width="24" height="24" viewBox="0 0 24 24" fill="none" xmlns="http://www.w3.org/2000/svg">
<rect width="24" height="24" fill="currentColor" fill-opacity="0.01"/>
<path d="M20.1136 13.062C19.4824 12.2315 18.5271 11.8105 17.2745 11.8105C15.8241 11.8105 14.4747 12.4617 13.5745 13.5748C12.967 13.2395 12.2877 13.0643 11.5829 13.0643C10.786 13.0643 10.0043 13.2968 9.33944 13.7259C9.41363 12.3524 9.35851 10.1691 8.5519 8.20923C8.78147 7.96202 9.25047 7.59328 9.8978 7.76721C10.4239 7.90858 10.9822 7.74542 11.355 7.34154C12.0993 6.53532 12.3194 5.59175 11.9747 4.68463C11.428 3.24626 10.448 3.01202 9.91246 3.00048C9.2078 2.98569 8.40975 3.31591 7.66462 3.93159C7.00523 4.47659 6.45777 5.18216 6.16283 5.86762C5.70862 6.92299 5.07659 9.71116 4.65169 12.0062C4.31797 13.8088 3.79995 16.9703 4.08023 17.8911C4.13847 18.0824 4.3028 18.2225 4.50111 18.2494C4.51745 18.2516 6.17178 18.4846 8.27162 19.4221C9.08108 19.7834 10.6805 20 12.422 20C12.7176 20 13.0175 19.9938 13.318 19.9809C14.7687 19.9191 17.4654 19.6445 19.2269 18.5018C20.3145 17.7964 20.8895 16.841 20.8895 15.7394C20.8895 14.6553 20.6211 13.7295 20.1136 13.062ZM18.6694 17.6424C15.9759 19.3896 10.1383 19.1336 8.68925 18.4867C7.04492 17.7526 5.6653 17.4258 5.02328 17.3008C4.99358 16.5851 5.16738 14.8475 5.65894 12.1927C6.14143 9.58638 6.74907 7.09666 7.10367 6.27255C7.5549 5.22444 8.8519 4.0242 9.86304 4.0242C9.87212 4.0242 9.88133 4.02433 9.89028 4.02459C10.0743 4.02848 10.6341 4.04067 11.0171 5.04857C11.2223 5.58851 11.0827 6.12625 10.6023 6.64673C10.4904 6.76787 10.3183 6.81949 10.1636 6.77786C8.83543 6.42092 7.85775 7.33103 7.52623 7.86202C7.43531 8.0078 7.42351 8.18938 7.49472 8.34567C8.66682 10.9165 8.29756 14.1653 8.20833 14.8111C7.89186 15.2582 7.66449 15.7663 7.54582 16.3037C7.48486 16.5799 7.65931 16.8533 7.93557 16.9143C8.21183 16.9751 8.48511 16.8008 8.54607 16.5246C8.85773 15.113 10.1349 14.0887 11.5829 14.0887C12.2428 14.0887 12.8731 14.2928 13.4057 14.6789C13.4083 14.6807 13.411 14.6822 13.4136 14.684C13.4162 14.6858 13.4186 14.688 13.4214 14.6898C13.7767 14.9277 14.2363 15.51 14.3832 15.7142C14.4832 15.8535 14.6403 15.9275 14.7996 15.9275C14.9031 15.9275 15.0075 15.8964 15.098 15.8314C15.3277 15.6663 15.3802 15.3464 15.2151 15.1165C15.1661 15.0482 14.819 14.5721 14.405 14.1779C15.1115 13.3298 16.1545 12.8349 17.2745 12.8349C19.4156 12.8349 19.8651 14.4143 19.8651 15.7394C19.8651 16.4981 19.4739 17.1205 18.6694 17.6424Z" fill="currentColor" stroke="currentColor"/>
</svg>
